<svg xmlns="http://www.w3.org/2000/svg" version="1.1" xmlns:xlink="http://www.w3.org/1999/xlink" xmlns:svgjs="http://svgjs.dev/svgjs" viewBox="0 0 800 800" opacity="1"><g stroke-width="10" stroke="hsl(205, 69%, 50%)" fill="none" stroke-linecap="round" transform="matrix(1,0,0,1,-5,-17.504531860351562)"><path d="M10,10C28.75,12.291666666666666,60.416666666666664,24.958333333333332,100,21C139.58333333333334,17.041666666666668,158.33333333333331,-10.25,200,-9C241.66666666666669,-7.75,258.3333333333333,25.75,300,27C341.6666666666667,28.25,358.3333333333333,-5.291666666666666,400,-3C441.6666666666667,-0.7083333333333335,458.3333333333333,39.25,500,38C541.6666666666666,36.75,558.3333333333334,-10.666666666666666,600,-9C641.6666666666666,-7.333333333333334,658.3333333333334,44.333333333333336,700,46C741.6666666666666,47.666666666666664,779.1666666666666,8.791666666666666,800,-1"></path><path d="M10,10C28.75,12.291666666666666,60.416666666666664,24.958333333333332,100,21C139.58333333333334,17.041666666666668,158.33333333333331,-10.25,200,-9C241.66666666666669,-7.75,258.3333333333333,25.75,300,27C341.6666666666667,28.25,358.3333333333333,-5.291666666666666,400,-3C441.6666666666667,-0.7083333333333335,458.3333333333333,39.25,500,38C541.6666666666666,36.75,558.3333333333334,-10.666666666666666,600,-9C641.6666666666666,-7.333333333333334,658.3333333333334,44.333333333333336,700,46C741.6666666666666,47.666666666666664,779.1666666666666,8.791666666666666,800,-1" transform="matrix(1,0,0,1,0,798)"></path><path d="M10,10C28.75,12.291666666666666,60.416666666666664,24.958333333333332,100,21C139.58333333333334,17.041666666666668,158.33333333333331,-10.25,200,-9C241.66666666666669,-7.75,258.3333333333333,25.75,300,27C341.6666666666667,28.25,358.3333333333333,-5.291666666666666,400,-3C441.6666666666667,-0.7083333333333335,458.3333333333333,39.25,500,38C541.6666666666666,36.75,558.3333333333334,-10.666666666666666,600,-9C641.6666666666666,-7.333333333333334,658.3333333333334,44.333333333333336,700,46C741.6666666666666,47.666666666666664,779.1666666666666,8.791666666666666,800,-1" transform="matrix(1,0,0,1,0,760)"></path><path d="M10,10C28.75,12.291666666666666,60.416666666666664,24.958333333333332,100,21C139.58333333333334,17.041666666666668,158.33333333333331,-10.25,200,-9C241.66666666666669,-7.75,258.3333333333333,25.75,300,27C341.6666666666667,28.25,358.3333333333333,-5.291666666666666,400,-3C441.6666666666667,-0.7083333333333335,458.3333333333333,39.25,500,38C541.6666666666666,36.75,558.3333333333334,-10.666666666666666,600,-9C641.6666666666666,-7.333333333333334,658.3333333333334,44.333333333333336,700,46C741.6666666666666,47.666666666666664,779.1666666666666,8.791666666666666,800,-1" transform="matrix(1,0,0,1,0,722)"></path><path d="M10,10C28.75,12.291666666666666,60.416666666666664,24.958333333333332,100,21C139.58333333333334,17.041666666666668,158.33333333333331,-10.25,200,-9C241.66666666666669,-7.75,258.3333333333333,25.75,300,27C341.6666666666667,28.25,358.3333333333333,-5.291666666666666,400,-3C441.6666666666667,-0.7083333333333335,458.3333333333333,39.25,500,38C541.6666666666666,36.75,558.3333333333334,-10.666666666666666,600,-9C641.6666666666666,-7.333333333333334,658.3333333333334,44.333333333333336,700,46C741.6666666666666,47.666666666666664,779.1666666666666,8.791666666666666,800,-1" transform="matrix(1,0,0,1,0,684)"></path><path d="M10,10C28.75,12.291666666666666,60.416666666666664,24.958333333333332,100,21C139.58333333333334,17.041666666666668,158.33333333333331,-10.25,200,-9C241.66666666666669,-7.75,258.3333333333333,25.75,300,27C341.6666666666667,28.25,358.3333333333333,-5.291666666666666,400,-3C441.6666666666667,-0.7083333333333335,458.3333333333333,39.25,500,38C541.6666666666666,36.75,558.3333333333334,-10.666666666666666,600,-9C641.6666666666666,-7.333333333333334,658.3333333333334,44.333333333333336,700,46C741.6666666666666,47.666666666666664,779.1666666666666,8.791666666666666,800,-1" transform="matrix(1,0,0,1,0,646)"></path><path d="M10,10C28.75,12.291666666666666,60.416666666666664,24.958333333333332,100,21C139.58333333333334,17.041666666666668,158.33333333333331,-10.25,200,-9C241.66666666666669,-7.75,258.3333333333333,25.75,300,27C341.6666666666667,28.25,358.3333333333333,-5.291666666666666,400,-3C441.6666666666667,-0.7083333333333335,458.3333333333333,39.25,500,38C541.6666666666666,36.75,558.3333333333334,-10.666666666666666,600,-9C641.6666666666666,-7.333333333333334,658.3333333333334,44.333333333333336,700,46C741.6666666666666,47.666666666666664,779.1666666666666,8.791666666666666,800,-1" transform="matrix(1,0,0,1,0,608)"></path><path d="M10,10C28.75,12.291666666666666,60.416666666666664,24.958333333333332,100,21C139.58333333333334,17.041666666666668,158.33333333333331,-10.25,200,-9C241.66666666666669,-7.75,258.3333333333333,25.75,300,27C341.6666666666667,28.25,358.3333333333333,-5.291666666666666,400,-3C441.6666666666667,-0.7083333333333335,458.3333333333333,39.25,500,38C541.6666666666666,36.75,558.3333333333334,-10.666666666666666,600,-9C641.6666666666666,-7.333333333333334,658.3333333333334,44.333333333333336,700,46C741.6666666666666,47.666666666666664,779.1666666666666,8.791666666666666,800,-1" transform="matrix(1,0,0,1,0,570)"></path><path d="M10,10C28.75,12.291666666666666,60.416666666666664,24.958333333333332,100,21C139.58333333333334,17.041666666666668,158.33333333333331,-10.25,200,-9C241.66666666666669,-7.75,258.3333333333333,25.75,300,27C341.6666666666667,28.25,358.3333333333333,-5.291666666666666,400,-3C441.6666666666667,-0.7083333333333335,458.3333333333333,39.25,500,38C541.6666666666666,36.75,558.3333333333334,-10.666666666666666,600,-9C641.6666666666666,-7.333333333333334,658.3333333333334,44.333333333333336,700,46C741.6666666666666,47.666666666666664,779.1666666666666,8.791666666666666,800,-1" transform="matrix(1,0,0,1,0,532)"></path><path d="M10,10C28.75,12.291666666666666,60.416666666666664,24.958333333333332,100,21C139.58333333333334,17.041666666666668,158.33333333333331,-10.25,200,-9C241.66666666666669,-7.75,258.3333333333333,25.75,300,27C341.6666666666667,28.25,358.3333333333333,-5.291666666666666,400,-3C441.6666666666667,-0.7083333333333335,458.3333333333333,39.25,500,38C541.6666666666666,36.75,558.3333333333334,-10.666666666666666,600,-9C641.6666666666666,-7.333333333333334,658.3333333333334,44.333333333333336,700,46C741.6666666666666,47.666666666666664,779.1666666666666,8.791666666666666,800,-1" transform="matrix(1,0,0,1,0,494)"></path><path d="M10,10C28.75,12.291666666666666,60.416666666666664,24.958333333333332,100,21C139.58333333333334,17.041666666666668,158.33333333333331,-10.25,200,-9C241.66666666666669,-7.75,258.3333333333333,25.75,300,27C341.6666666666667,28.25,358.3333333333333,-5.291666666666666,400,-3C441.6666666666667,-0.7083333333333335,458.3333333333333,39.25,500,38C541.6666666666666,36.75,558.3333333333334,-10.666666666666666,600,-9C641.6666666666666,-7.333333333333334,658.3333333333334,44.333333333333336,700,46C741.6666666666666,47.666666666666664,779.1666666666666,8.791666666666666,800,-1" transform="matrix(1,0,0,1,0,456)"></path><path d="M10,10C28.75,12.291666666666666,60.416666666666664,24.958333333333332,100,21C139.58333333333334,17.041666666666668,158.33333333333331,-10.25,200,-9C241.66666666666669,-7.75,258.3333333333333,25.75,300,27C341.6666666666667,28.25,358.3333333333333,-5.291666666666666,400,-3C441.6666666666667,-0.7083333333333335,458.3333333333333,39.25,500,38C541.6666666666666,36.75,558.3333333333334,-10.666666666666666,600,-9C641.6666666666666,-7.333333333333334,658.3333333333334,44.333333333333336,700,46C741.6666666666666,47.666666666666664,779.1666666666666,8.791666666666666,800,-1" transform="matrix(1,0,0,1,0,418)"></path><path d="M10,10C28.75,12.291666666666666,60.416666666666664,24.958333333333332,100,21C139.58333333333334,17.041666666666668,158.33333333333331,-10.25,200,-9C241.66666666666669,-7.75,258.3333333333333,25.75,300,27C341.6666666666667,28.25,358.3333333333333,-5.291666666666666,400,-3C441.6666666666667,-0.7083333333333335,458.3333333333333,39.25,500,38C541.6666666666666,36.75,558.3333333333334,-10.666666666666666,600,-9C641.6666666666666,-7.333333333333334,658.3333333333334,44.333333333333336,700,46C741.6666666666666,47.666666666666664,779.1666666666666,8.791666666666666,800,-1" transform="matrix(1,0,0,1,0,380)"></path><path d="M10,10C28.75,12.291666666666666,60.416666666666664,24.958333333333332,100,21C139.58333333333334,17.041666666666668,158.33333333333331,-10.25,200,-9C241.66666666666669,-7.75,258.3333333333333,25.75,300,27C341.6666666666667,28.25,358.3333333333333,-5.291666666666666,400,-3C441.6666666666667,-0.7083333333333335,458.3333333333333,39.25,500,38C541.6666666666666,36.75,558.3333333333334,-10.666666666666666,600,-9C641.6666666666666,-7.333333333333334,658.3333333333334,44.333333333333336,700,46C741.6666666666666,47.666666666666664,779.1666666666666,8.791666666666666,800,-1" transform="matrix(1,0,0,1,0,342)"></path><path d="M10,10C28.75,12.291666666666666,60.416666666666664,24.958333333333332,100,21C139.58333333333334,17.041666666666668,158.33333333333331,-10.25,200,-9C241.66666666666669,-7.75,258.3333333333333,25.75,300,27C341.6666666666667,28.25,358.3333333333333,-5.291666666666666,400,-3C441.6666666666667,-0.7083333333333335,458.3333333333333,39.25,500,38C541.6666666666666,36.75,558.3333333333334,-10.666666666666666,600,-9C641.6666666666666,-7.333333333333334,658.3333333333334,44.333333333333336,700,46C741.6666666666666,47.666666666666664,779.1666666666666,8.791666666666666,800,-1" transform="matrix(1,0,0,1,0,304)"></path><path d="M10,10C28.75,12.291666666666666,60.416666666666664,24.958333333333332,100,21C139.58333333333334,17.041666666666668,158.33333333333331,-10.25,200,-9C241.66666666666669,-7.75,258.3333333333333,25.75,300,27C341.6666666666667,28.25,358.3333333333333,-5.291666666666666,400,-3C441.6666666666667,-0.7083333333333335,458.3333333333333,39.25,500,38C541.6666666666666,36.75,558.3333333333334,-10.666666666666666,600,-9C641.6666666666666,-7.333333333333334,658.3333333333334,44.333333333333336,700,46C741.6666666666666,47.666666666666664,779.1666666666666,8.791666666666666,800,-1" transform="matrix(1,0,0,1,0,266)"></path><path d="M10,10C28.75,12.291666666666666,60.416666666666664,24.958333333333332,100,21C139.58333333333334,17.041666666666668,158.33333333333331,-10.25,200,-9C241.66666666666669,-7.75,258.3333333333333,25.75,300,27C341.6666666666667,28.25,358.3333333333333,-5.291666666666666,400,-3C441.6666666666667,-0.7083333333333335,458.3333333333333,39.25,500,38C541.6666666666666,36.75,558.3333333333334,-10.666666666666666,600,-9C641.6666666666666,-7.333333333333334,658.3333333333334,44.333333333333336,700,46C741.6666666666666,47.666666666666664,779.1666666666666,8.791666666666666,800,-1" transform="matrix(1,0,0,1,0,228)"></path><path d="M10,10C28.75,12.291666666666666,60.416666666666664,24.958333333333332,100,21C139.58333333333334,17.041666666666668,158.33333333333331,-10.25,200,-9C241.66666666666669,-7.75,258.3333333333333,25.75,300,27C341.6666666666667,28.25,358.3333333333333,-5.291666666666666,400,-3C441.6666666666667,-0.7083333333333335,458.3333333333333,39.25,500,38C541.6666666666666,36.75,558.3333333333334,-10.666666666666666,600,-9C641.6666666666666,-7.333333333333334,658.3333333333334,44.333333333333336,700,46C741.6666666666666,47.666666666666664,779.1666666666666,8.791666666666666,800,-1" transform="matrix(1,0,0,1,0,190)"></path><path d="M10,10C28.75,12.291666666666666,60.416666666666664,24.958333333333332,100,21C139.58333333333334,17.041666666666668,158.33333333333331,-10.25,200,-9C241.66666666666669,-7.75,258.3333333333333,25.75,300,27C341.6666666666667,28.25,358.3333333333333,-5.291666666666666,400,-3C441.6666666666667,-0.7083333333333335,458.3333333333333,39.25,500,38C541.6666666666666,36.75,558.3333333333334,-10.666666666666666,600,-9C641.6666666666666,-7.333333333333334,658.3333333333334,44.333333333333336,700,46C741.6666666666666,47.666666666666664,779.1666666666666,8.791666666666666,800,-1" transform="matrix(1,0,0,1,0,152)"></path><path d="M10,10C28.75,12.291666666666666,60.416666666666664,24.958333333333332,100,21C139.58333333333334,17.041666666666668,158.33333333333331,-10.25,200,-9C241.66666666666669,-7.75,258.3333333333333,25.75,300,27C341.6666666666667,28.25,358.3333333333333,-5.291666666666666,400,-3C441.6666666666667,-0.7083333333333335,458.3333333333333,39.25,500,38C541.6666666666666,36.75,558.3333333333334,-10.666666666666666,600,-9C641.6666666666666,-7.333333333333334,658.3333333333334,44.333333333333336,700,46C741.6666666666666,47.666666666666664,779.1666666666666,8.791666666666666,800,-1" transform="matrix(1,0,0,1,0,114)"></path><path d="M10,10C28.75,12.291666666666666,60.416666666666664,24.958333333333332,100,21C139.58333333333334,17.041666666666668,158.33333333333331,-10.25,200,-9C241.66666666666669,-7.75,258.3333333333333,25.75,300,27C341.6666666666667,28.25,358.3333333333333,-5.291666666666666,400,-3C441.6666666666667,-0.7083333333333335,458.3333333333333,39.25,500,38C541.6666666666666,36.75,558.3333333333334,-10.666666666666666,600,-9C641.6666666666666,-7.333333333333334,658.3333333333334,44.333333333333336,700,46C741.6666666666666,47.666666666666664,779.1666666666666,8.791666666666666,800,-1" transform="matrix(1,0,0,1,0,76)"></path><path d="M10,10C28.75,12.291666666666666,60.416666666666664,24.958333333333332,100,21C139.58333333333334,17.041666666666668,158.33333333333331,-10.25,200,-9C241.66666666666669,-7.75,258.3333333333333,25.75,300,27C341.6666666666667,28.25,358.3333333333333,-5.291666666666666,400,-3C441.6666666666667,-0.7083333333333335,458.3333333333333,39.25,500,38C541.6666666666666,36.75,558.3333333333334,-10.666666666666666,600,-9C641.6666666666666,-7.333333333333334,658.3333333333334,44.333333333333336,700,46C741.6666666666666,47.666666666666664,779.1666666666666,8.791666666666666,800,-1" transform="matrix(1,0,0,1,0,38)"></path></g></svg>